<svg width="24" height="24" viewBox="0 0 24 24" fill="none" xmlns="http://www.w3.org/2000/svg">
<path fill-rule="evenodd" clip-rule="evenodd" d="M3 7C3 6.44772 3.44772 6 4 6H20C20.5523 6 21 6.44772 21 7C21 7.55228 20.5523 8 20 8H4C3.44772 8 3 7.55228 3 7Z" fill="#37383B"/>
<path fill-rule="evenodd" clip-rule="evenodd" d="M3 11.96C3 11.4298 3.42981 11 3.96 11H20.04C20.5702 11 21 11.4298 21 11.96V12.04C21 12.5702 20.5702 13 20.04 13H3.96C3.42981 13 3 12.5702 3 12.04V11.96Z" fill="#37383B"/>
<path fill-rule="evenodd" clip-rule="evenodd" d="M3 17C3 16.4477 3.44772 16 4 16H20C20.5523 16 21 16.4477 21 17C21 17.5523 20.5523 18 20 18H4C3.44772 18 3 17.5523 3 17Z" fill="#37383B"/>
</svg>
