<svg width="20" height="20" viewBox="0 0 20 20" fill="none" xmlns="http://www.w3.org/2000/svg">
<path fill-rule="evenodd" clip-rule="evenodd" d="M4.42202 14.3374C4.07981 14.6796 4.07981 15.2344 4.42202 15.5766C4.76424 15.9188 5.31907 15.9188 5.66129 15.5766L9.9987 11.2392L14.3361 15.5766C14.6783 15.9188 15.2332 15.9188 15.5754 15.5766C15.9176 15.2344 15.9176 14.6796 15.5754 14.3374L11.238 9.99996L15.5754 5.66255C15.9176 5.32033 15.9176 4.7655 15.5754 4.42329C15.2332 4.08107 14.6783 4.08107 14.3361 4.42329L9.9987 8.7607L5.66128 4.42329C5.31907 4.08107 4.76424 4.08107 4.42202 4.42329C4.07981 4.7655 4.07981 5.32033 4.42202 5.66255L8.75944 9.99996L4.42202 14.3374Z" fill="#D3D6DB"/>
</svg>
