<svg width="16" height="16" viewBox="0 0 16 16" fill="none" xmlns="http://www.w3.org/2000/svg">
<path d="M5.48161 8.42046C5.26805 8.15861 5.28311 7.77261 5.52719 7.52853L5.6001 7.45562C5.60304 7.45268 5.60564 7.44943 5.60857 7.4465C5.61149 7.44358 5.61477 7.44095 5.61768 7.43804L5.64503 7.41069C5.64796 7.40776 5.65056 7.40451 5.65349 7.40158C5.65642 7.39865 5.65968 7.39604 5.6626 7.39312L5.69841 7.35731C5.70134 7.35438 5.70395 7.35112 5.70687 7.34819C5.70981 7.34526 5.71306 7.34266 5.71599 7.33973L5.76872 7.287C5.77163 7.28409 5.77428 7.28079 5.77719 7.27788C5.7801 7.27497 5.78339 7.27233 5.7863 7.26942L5.84685 7.20887C5.84972 7.206 5.85244 7.20263 5.85531 7.19976C5.85817 7.19689 5.86157 7.19415 5.86443 7.19129L5.89828 7.15744C5.90113 7.15459 5.9039 7.15117 5.90674 7.14832L5.91521 7.13986C5.91805 7.13702 5.92149 7.13423 5.92432 7.1314L5.98357 7.07215C5.98628 7.06944 5.98867 7.0664 5.99138 7.06369L5.99984 7.05523C6.00256 7.05251 6.0056 7.05012 6.00831 7.04741L6.04216 7.01356C6.04487 7.01085 6.04726 7.00781 6.04997 7.0051C6.05269 7.00238 6.05573 6.99999 6.05844 6.99728L6.07536 6.98036C6.07807 6.97765 6.08047 6.9746 6.08318 6.97189C6.08589 6.96918 6.08893 6.96679 6.09164 6.96408L6.1001 6.95562C6.10282 6.9529 6.10521 6.94986 6.10792 6.94715C6.11063 6.94444 6.11367 6.94205 6.11638 6.93934L6.14112 6.9146C6.14383 6.91189 6.14622 6.90885 6.14893 6.90614C6.15163 6.90344 6.1547 6.90102 6.1574 6.89832L6.20622 6.8495C6.20892 6.84681 6.21135 6.84372 6.21404 6.84103C6.21673 6.83834 6.21981 6.83591 6.2225 6.83322L6.24659 6.80913C6.24927 6.80645 6.25172 6.80335 6.2544 6.80067C6.25708 6.79799 6.26019 6.79553 6.26286 6.79286L6.27068 6.78504C6.27335 6.78237 6.27582 6.77925 6.27849 6.77658C6.28115 6.77392 6.28429 6.77143 6.28695 6.76877L6.30258 6.75314C6.30523 6.75049 6.30774 6.74733 6.31039 6.74468C6.31305 6.74202 6.3162 6.73952 6.31885 6.73687L6.34229 6.71343C6.34493 6.71079 6.34747 6.7076 6.3501 6.70497C6.35274 6.70233 6.35593 6.69979 6.35857 6.69715L6.42107 6.63465C6.42368 6.63204 6.42627 6.6288 6.42888 6.62619L6.4445 6.61056C6.447 6.60807 6.44982 6.6059 6.45232 6.6034L6.52263 6.53309C6.52512 6.5306 6.5273 6.52777 6.52979 6.52528C6.53229 6.52278 6.53511 6.52061 6.5376 6.51812L6.56104 6.49468C6.56354 6.49218 6.56571 6.48936 6.5682 6.48687C6.57069 6.48438 6.57353 6.48219 6.57602 6.4797L6.59164 6.46408C6.59414 6.46158 6.59631 6.45876 6.5988 6.45627C6.60129 6.45378 6.60413 6.45159 6.60661 6.44911L6.68279 6.37293C6.68528 6.37044 6.68745 6.36762 6.68995 6.36512C6.69244 6.36262 6.69527 6.36045 6.69776 6.35796L6.81755 6.23817C6.82003 6.23569 6.82224 6.23283 6.82471 6.23036C6.82719 6.22788 6.83005 6.22567 6.83253 6.22319L6.85466 6.20106C6.85713 6.19859 6.85936 6.19571 6.86182 6.19325C6.86428 6.19078 6.86717 6.18855 6.86964 6.18609L6.8768 6.17892C6.87925 6.17647 6.88151 6.17356 6.88396 6.17111C6.88642 6.16865 6.88931 6.16641 6.89177 6.16395L6.89893 6.15679C6.90138 6.15434 6.90365 6.15142 6.90609 6.14898C6.90855 6.14652 6.91145 6.14427 6.91391 6.14181L6.92107 6.13465C6.92352 6.1322 6.92578 6.12929 6.92823 6.12684C6.93067 6.1244 6.9336 6.12212 6.93604 6.11968L7.00896 6.04676C7.01139 6.04433 7.01369 6.04138 7.01612 6.03895C7.01854 6.03652 7.02151 6.03421 7.02393 6.03179L7.04542 6.0103C7.04784 6.00788 7.05015 6.00492 7.05258 6.00249C7.05499 6.00008 7.05798 5.99774 7.06039 5.99533L7.0962 5.95952C7.09861 5.95711 7.10095 5.95412 7.10336 5.95171C7.10578 5.94929 7.10876 5.94696 7.11117 5.94455L7.1613 5.89442C7.16371 5.89201 7.16606 5.88901 7.16846 5.88661C7.17087 5.8842 7.17387 5.88185 7.17628 5.87944L7.29086 5.76486C7.29325 5.76247 7.29563 5.75944 7.29802 5.75705L7.40544 5.64963C7.40772 5.64735 7.41033 5.64539 7.4126 5.64312L7.64177 5.41395C7.64405 5.41167 7.646 5.40907 7.64828 5.40679L7.7557 5.29937C7.75809 5.29698 7.76112 5.2946 7.76352 5.2922L7.8781 5.17762C7.8805 5.17522 7.88285 5.17222 7.88526 5.16981C7.88766 5.1674 7.89067 5.16505 7.89307 5.16265L7.9432 5.11252C7.94562 5.1101 7.94795 5.10712 7.95036 5.1047C7.95278 5.10229 7.95576 5.09996 7.95818 5.09754L7.99398 5.06174C7.99639 5.05933 7.99874 5.05633 8.00115 5.05392C8.00357 5.0515 8.00653 5.04919 8.00896 5.04676L8.03044 5.02528C8.03287 5.02285 8.03518 5.01989 8.0376 5.01747C8.04004 5.01503 8.04298 5.01274 8.04542 5.0103L8.11833 4.93739C8.12077 4.93495 8.12305 4.93202 8.12549 4.92957C8.12795 4.92712 8.13085 4.92487 8.13331 4.92241L8.14047 4.91525C8.14292 4.9128 8.14517 4.9099 8.14763 4.90744C8.15008 4.90499 8.15299 4.90273 8.15544 4.90028L8.1626 4.89312C8.16506 4.89066 8.1673 4.88777 8.16977 4.8853C8.17222 4.88285 8.17512 4.8806 8.17758 4.87814L8.18474 4.87098C8.1872 4.86852 8.18944 4.86563 8.1919 4.86317C8.19437 4.8607 8.19724 4.85848 8.19971 4.85601L8.22185 4.83387C8.22432 4.8314 8.22653 4.82854 8.22901 4.82606C8.23148 4.82359 8.23435 4.82137 8.23682 4.8189L8.35661 4.69911C8.35911 4.69661 8.36128 4.69379 8.36378 4.69129C8.36627 4.6888 8.36909 4.68663 8.37159 4.68413L8.44776 4.60796C8.45024 4.60548 8.45244 4.60263 8.45492 4.60015C8.45742 4.59765 8.46024 4.59548 8.46273 4.59299L8.47836 4.57736C8.48084 4.57488 8.48303 4.57204 8.48552 4.56955C8.48801 4.56705 8.49084 4.56488 8.49333 4.56239L8.51677 4.53895C8.51926 4.53646 8.52143 4.53363 8.52393 4.53114C8.52642 4.52864 8.52925 4.52647 8.53174 4.52398L8.60206 4.45366C8.60455 4.45117 8.60672 4.44835 8.60922 4.44585L8.62484 4.43023C8.62745 4.42762 8.6307 4.42502 8.63331 4.42241L8.69581 4.35991C8.69844 4.35728 8.70098 4.35409 8.70362 4.35145C8.70625 4.34882 8.70945 4.34627 8.71208 4.34364L8.73552 4.3202C8.73817 4.31755 8.74068 4.31439 8.74333 4.31174C8.74598 4.30909 8.74915 4.30657 8.7518 4.30392L8.76742 4.2883C8.77008 4.28564 8.77257 4.2825 8.77523 4.27983C8.7779 4.27717 8.78102 4.2747 8.7837 4.27202L8.79151 4.26421C8.79418 4.26154 8.79664 4.25842 8.79932 4.25575C8.802 4.25307 8.8051 4.25062 8.80779 4.24793L8.83187 4.22385C8.83457 4.22115 8.83699 4.21808 8.83969 4.21538C8.84237 4.21269 8.84546 4.21026 8.84815 4.20757L8.89698 4.15874C8.89968 4.15604 8.90209 4.15298 8.90479 4.15028C8.9075 4.14757 8.91054 4.14518 8.91325 4.14247L8.93799 4.11773C8.9407 4.11502 8.9431 4.11197 8.94581 4.10926C8.94852 4.10655 8.95156 4.10416 8.95427 4.10145L8.96273 4.09299C8.96544 4.09028 8.96783 4.08724 8.97055 4.08452C8.97325 4.08182 8.9763 4.07942 8.97901 4.07671L8.99594 4.05978C8.99865 4.05707 9.00104 4.05403 9.00375 4.05132C9.00646 4.04861 9.0095 4.04622 9.01221 4.04351L9.04607 4.00965C9.04878 4.00694 9.05117 4.0039 9.05388 4.00119L9.06234 3.99273C9.06505 3.99001 9.06809 3.98763 9.07081 3.98491L9.13005 3.92567C9.13289 3.92283 9.13567 3.91939 9.13852 3.91655L9.14698 3.90809C9.14982 3.90525 9.15324 3.90248 9.15609 3.89963L9.18995 3.86577C9.19281 3.86291 9.19555 3.85952 9.19841 3.85666C9.20128 3.85379 9.20465 3.85107 9.20753 3.84819L9.26807 3.78765C9.27098 3.78474 9.27362 3.78145 9.27654 3.77853C9.27944 3.77563 9.28274 3.77298 9.28565 3.77007L9.33839 3.71733C9.34131 3.71441 9.34392 3.71115 9.34685 3.70822C9.34977 3.7053 9.35304 3.70268 9.35596 3.69976L9.39177 3.66395C9.3947 3.66102 9.3973 3.65777 9.40023 3.65483C9.40316 3.65191 9.40642 3.6493 9.40935 3.64637L9.43669 3.61903C9.43961 3.61611 9.44224 3.61283 9.44516 3.60991C9.44808 3.60699 9.45134 3.60438 9.45427 3.60145L9.52719 3.52853C9.78754 3.26818 10.2095 3.26818 10.4699 3.52853C10.7302 3.78888 10.7302 4.21089 10.4699 4.47124L10.397 4.54416C10.394 4.54709 10.3914 4.55035 10.3885 4.55327C10.3856 4.55619 10.3823 4.55882 10.3794 4.56174L10.3521 4.58908C10.3491 4.59201 10.3465 4.59527 10.3436 4.59819C10.3407 4.60113 10.3374 4.60373 10.3345 4.60666L10.2987 4.64247C10.2957 4.64539 10.2931 4.64866 10.2902 4.65158C10.2873 4.65451 10.284 4.65712 10.2811 4.66004L10.2284 4.71278C10.2254 4.71569 10.2228 4.71899 10.2199 4.72189C10.217 4.7248 10.2137 4.72745 10.2108 4.73036L10.1502 4.7909C10.1474 4.79378 10.1446 4.79715 10.1418 4.80002C10.1389 4.80288 10.1355 4.80562 10.1327 4.80848L10.0988 4.84234C10.096 4.84518 10.0932 4.8486 10.0903 4.85145L10.0819 4.85991C10.079 4.86275 10.0756 4.86554 10.0728 4.86838L10.0135 4.92762C10.0108 4.93034 10.0084 4.93337 10.0057 4.93609L9.99724 4.94455C9.99452 4.94726 9.99149 4.94965 9.98878 4.95236L9.95492 4.98622C9.95221 4.98893 9.94982 4.99197 9.94711 4.99468C9.94439 4.99739 9.94136 4.99978 9.93865 5.00249L9.92172 5.01942C9.91901 5.02213 9.91661 5.02518 9.91391 5.02788C9.91119 5.0306 9.90815 5.03298 9.90544 5.03569L9.89698 5.04416C9.89426 5.04687 9.89188 5.04991 9.88917 5.05262C9.88646 5.05533 9.88341 5.05773 9.8807 5.06043L9.85596 5.08517C9.85325 5.08789 9.85086 5.09093 9.84815 5.09364C9.84545 5.09634 9.84238 5.09875 9.83969 5.10145L9.79086 5.15028C9.78817 5.15297 9.78573 5.15605 9.78305 5.15874C9.78035 5.16144 9.77728 5.16386 9.77458 5.16655L9.75049 5.19064C9.74781 5.19333 9.74536 5.19643 9.74268 5.19911C9.74 5.20178 9.73689 5.20424 9.73422 5.20692L9.72641 5.21473C9.72373 5.2174 9.72126 5.22053 9.71859 5.22319C9.71593 5.22586 9.71279 5.22835 9.71013 5.23101L9.6945 5.24663C9.69185 5.24928 9.68934 5.25245 9.68669 5.2551C9.68404 5.25775 9.68088 5.26026 9.67823 5.26291L9.65479 5.28635C9.65216 5.28898 9.64961 5.29218 9.64698 5.29481C9.64434 5.29745 9.64115 5.29999 9.63852 5.30262L9.57602 5.36512C9.5734 5.36773 9.57081 5.37098 9.5682 5.37359L9.55258 5.38921C9.55008 5.39171 9.54726 5.39388 9.54477 5.39637L9.47445 5.46668C9.47196 5.46918 9.46978 5.472 9.46729 5.4745C9.46479 5.47699 9.46197 5.47916 9.45948 5.48166L9.43604 5.5051C9.43354 5.50759 9.43137 5.51041 9.42888 5.51291C9.42639 5.5154 9.42355 5.51758 9.42107 5.52007L9.40544 5.53569C9.40295 5.53819 9.40078 5.54101 9.39828 5.54351C9.3958 5.54599 9.39295 5.54819 9.39047 5.55067L9.3143 5.62684C9.3118 5.62934 9.30963 5.63216 9.30714 5.63465C9.30464 5.63715 9.30182 5.63932 9.29932 5.64181L9.17953 5.76161C9.17706 5.76408 9.17484 5.76695 9.17237 5.76942C9.16989 5.7719 9.16703 5.7741 9.16456 5.77658L9.14242 5.79872C9.13995 5.80118 9.13773 5.80406 9.13526 5.80653C9.1328 5.80899 9.12991 5.81123 9.12745 5.81369L9.12029 5.82085C9.11783 5.8233 9.11558 5.82621 9.11312 5.82866C9.11066 5.83113 9.10777 5.83336 9.10531 5.83582L9.09815 5.84299C9.0957 5.84544 9.09344 5.84835 9.09099 5.8508C9.08853 5.85326 9.08563 5.85551 9.08318 5.85796L9.07602 5.86512C9.07356 5.86757 9.0713 5.87048 9.06885 5.87293C9.06641 5.87538 9.06348 5.87765 9.06104 5.8801L8.98812 5.95301C8.98569 5.95545 8.9834 5.95839 8.98096 5.96082C8.97854 5.96325 8.97557 5.96556 8.97315 5.96799L8.95167 5.98947C8.94924 5.9919 8.94693 5.99486 8.9445 5.99728C8.9421 5.99969 8.9391 6.00204 8.93669 6.00444L8.90089 6.04025C8.89847 6.04267 8.89614 6.04565 8.89372 6.04806C8.89131 6.05048 8.88833 6.05281 8.88591 6.05523L8.83578 6.10536C8.83338 6.10776 8.83102 6.11076 8.82862 6.11317C8.82621 6.11557 8.82321 6.11792 8.82081 6.12033L8.70622 6.23491C8.70383 6.23731 8.70145 6.24033 8.69906 6.24273L8.59164 6.35015C8.58936 6.35243 8.58676 6.35438 8.58448 6.35666L8.35531 6.58582C8.35303 6.5881 8.35108 6.59071 8.3488 6.59299L8.24138 6.70041C8.23899 6.7028 8.23596 6.70518 8.23357 6.70757L8.11898 6.82215C8.11658 6.82456 8.11423 6.82756 8.11182 6.82997C8.10942 6.83237 8.10642 6.83472 8.10401 6.83713L8.05388 6.88726C8.05146 6.88967 8.04913 6.89265 8.04672 6.89507C8.0443 6.89748 8.04132 6.89982 8.03891 6.90223L8.0031 6.93804C8.00069 6.94045 7.99835 6.94344 7.99594 6.94585C7.99351 6.94828 7.99055 6.95059 7.98812 6.95301L7.96664 6.9745C7.96422 6.97692 7.9619 6.97988 7.95948 6.98231C7.95705 6.98474 7.9541 6.98704 7.95167 6.98947L7.87875 7.06239C7.87631 7.06483 7.87403 7.06776 7.87159 7.0702C7.86914 7.07265 7.86623 7.07491 7.86378 7.07736L7.85661 7.08452C7.85416 7.08698 7.85191 7.08988 7.84945 7.09234C7.84701 7.09478 7.84409 7.09705 7.84164 7.0995L7.83448 7.10666C7.83202 7.10912 7.82978 7.11201 7.82732 7.11447C7.82487 7.11692 7.82196 7.11918 7.8195 7.12163L7.81234 7.12879C7.80988 7.13125 7.80764 7.13414 7.80518 7.13661C7.80271 7.13907 7.79984 7.1413 7.79737 7.14377L7.77523 7.1659C7.77276 7.16838 7.77055 7.17124 7.76807 7.17372C7.7656 7.17619 7.76274 7.1784 7.76026 7.18088L7.64047 7.30067C7.63797 7.30316 7.6358 7.30598 7.63331 7.30848C7.63081 7.31097 7.62799 7.31315 7.62549 7.31564L7.54932 7.39181C7.54684 7.3943 7.54464 7.39714 7.54216 7.39963C7.53967 7.40212 7.53685 7.40429 7.53435 7.40679L7.51872 7.42241C7.51624 7.4249 7.51405 7.42774 7.51156 7.43023C7.50907 7.43272 7.50625 7.43489 7.50375 7.43739L7.48031 7.46082C7.47782 7.46332 7.47565 7.46614 7.47315 7.46864C7.47066 7.47113 7.46783 7.4733 7.46534 7.4758L7.39503 7.54611C7.39253 7.54861 7.39036 7.55143 7.38786 7.55392L7.37224 7.56955C7.36963 7.57216 7.36639 7.57475 7.36378 7.57736L7.30128 7.63986C7.29864 7.6425 7.2961 7.64569 7.29346 7.64832C7.29083 7.65096 7.28763 7.6535 7.285 7.65614L7.26156 7.67957C7.25891 7.68223 7.25641 7.68538 7.25375 7.68804C7.2511 7.69069 7.24794 7.6932 7.24529 7.69585L7.22966 7.71148C7.227 7.71413 7.22451 7.71728 7.22185 7.71994C7.21918 7.72261 7.21606 7.72508 7.21339 7.72775L7.20557 7.73556C7.2029 7.73824 7.20044 7.74135 7.19776 7.74403C7.19508 7.74671 7.19198 7.74916 7.1893 7.75184L7.16521 7.77593C7.16251 7.77862 7.16009 7.78169 7.1574 7.78439C7.15471 7.78708 7.15162 7.78951 7.14893 7.7922L7.1001 7.84103C7.09741 7.84373 7.09499 7.8468 7.09229 7.8495C7.08958 7.85221 7.08654 7.85459 7.08383 7.85731L7.05909 7.88205C7.05638 7.88476 7.05399 7.8878 7.05128 7.89051C7.04857 7.89322 7.04553 7.89561 7.04281 7.89832L7.03435 7.90679C7.03164 7.9095 7.02925 7.91254 7.02654 7.91525C7.02383 7.91796 7.02078 7.92036 7.01807 7.92306L7.00115 7.93999C6.99843 7.9427 6.99605 7.94574 6.99333 7.94845C6.99062 7.95116 6.98758 7.95355 6.98487 7.95627L6.95102 7.99012C6.9483 7.99283 6.94592 7.99587 6.9432 7.99859L6.94125 8.00054L10.4699 11.5285C10.7302 11.7889 10.7302 12.2109 10.4699 12.4712C10.2095 12.7316 9.78754 12.7316 9.52719 12.4712L5.52719 8.47124L5.48161 8.42046Z" fill="#37383B"/>
</svg>
