<svg width="20" height="20" viewBox="0 0 20 20" fill="none" xmlns="http://www.w3.org/2000/svg">
<path d="M13.1451 9.4743C13.412 9.80161 13.3932 10.2841 13.0881 10.5892L12.9969 10.6804C12.9933 10.684 12.99 10.6881 12.9864 10.6918C12.9827 10.6954 12.9786 10.6987 12.975 10.7023L12.9408 10.7365C12.9371 10.7402 12.9339 10.7442 12.9302 10.7479C12.9265 10.7516 12.9225 10.7548 12.9188 10.7585L12.8741 10.8032C12.8704 10.8069 12.8671 10.811 12.8635 10.8146C12.8598 10.8183 12.8557 10.8216 12.8521 10.8252L12.7862 10.8911C12.7825 10.8948 12.7792 10.8989 12.7756 10.9025C12.7719 10.9062 12.7678 10.9095 12.7642 10.9131L12.6885 10.9888C12.6849 10.9924 12.6815 10.9966 12.6779 11.0002C12.6744 11.0038 12.6701 11.0072 12.6665 11.0108L12.6242 11.0531C12.6207 11.0566 12.6172 11.0609 12.6136 11.0645L12.6031 11.0751C12.5995 11.0786 12.5952 11.0821 12.5917 11.0856L12.5176 11.1597C12.5142 11.1631 12.5112 11.1669 12.5078 11.1703L12.4973 11.1808C12.4939 11.1842 12.4901 11.1872 12.4867 11.1906L12.4444 11.2329C12.441 11.2363 12.438 11.2401 12.4346 11.2435C12.4312 11.2469 12.4274 11.2499 12.424 11.2533L12.4029 11.2744C12.3995 11.2778 12.3965 11.2816 12.3931 11.285C12.3897 11.2884 12.3859 11.2914 12.3825 11.2948L12.3719 11.3054C12.3685 11.3088 12.3656 11.3125 12.3622 11.3159C12.3588 11.3193 12.355 11.3223 12.3516 11.3257L12.3207 11.3566C12.3173 11.36 12.3143 11.3638 12.3109 11.3672C12.3075 11.3706 12.3037 11.3736 12.3003 11.377L12.2393 11.438C12.2359 11.4414 12.2329 11.4452 12.2295 11.4486C12.2262 11.452 12.2223 11.455 12.2189 11.4584L12.1888 11.4885C12.1855 11.4918 12.1824 11.4957 12.1791 11.499C12.1757 11.5024 12.1718 11.5055 12.1685 11.5088L12.1587 11.5186C12.1554 11.5219 12.1523 11.5258 12.149 11.5292C12.1456 11.5325 12.1417 11.5356 12.1384 11.5389L12.1188 11.5584C12.1155 11.5618 12.1124 11.5657 12.1091 11.569C12.1058 11.5723 12.1018 11.5755 12.0985 11.5788L12.0692 11.6081C12.0659 11.6114 12.0627 11.6154 12.0594 11.6187C12.0561 11.622 12.0522 11.6251 12.0489 11.6284L11.9707 11.7066C11.9675 11.7098 11.9642 11.7139 11.961 11.7171L11.9414 11.7367C11.9383 11.7398 11.9348 11.7425 11.9317 11.7456L11.8438 11.8335C11.8407 11.8366 11.8379 11.8402 11.8348 11.8433C11.8317 11.8464 11.8282 11.8491 11.8251 11.8522L11.7958 11.8815C11.7926 11.8847 11.7899 11.8882 11.7868 11.8913C11.7837 11.8944 11.7802 11.8971 11.7771 11.9002L11.7575 11.9198C11.7544 11.9229 11.7517 11.9264 11.7486 11.9295C11.7455 11.9326 11.7419 11.9354 11.7388 11.9385L11.6436 12.0337C11.6405 12.0368 11.6378 12.0404 11.6346 12.0435C11.6315 12.0466 11.628 12.0493 11.6249 12.0524L11.4751 12.2022C11.472 12.2053 11.4693 12.2088 11.4662 12.2119C11.4631 12.215 11.4595 12.2178 11.4564 12.2209L11.4287 12.2486C11.4257 12.2516 11.4229 12.2552 11.4198 12.2583C11.4167 12.2614 11.4131 12.2642 11.41 12.2673L11.4011 12.2762C11.398 12.2793 11.3952 12.2829 11.3921 12.286C11.389 12.2891 11.3854 12.2919 11.3824 12.2949L11.3734 12.3039C11.3703 12.307 11.3675 12.3106 11.3645 12.3137C11.3614 12.3167 11.3578 12.3195 11.3547 12.3226L11.3457 12.3316C11.3427 12.3346 11.3398 12.3383 11.3368 12.3413C11.3337 12.3444 11.3301 12.3472 11.327 12.3503L11.2359 12.4414C11.2328 12.4445 11.23 12.4481 11.2269 12.4512C11.2239 12.4542 11.2202 12.4571 11.2172 12.4601L11.1903 12.487C11.1873 12.49 11.1844 12.4937 11.1813 12.4968C11.1783 12.4998 11.1746 12.5027 11.1716 12.5057L11.1268 12.5505C11.1238 12.5535 11.1209 12.5572 11.1179 12.5602C11.1149 12.5633 11.1111 12.5662 11.1081 12.5692L11.0454 12.6319C11.0424 12.6349 11.0395 12.6386 11.0365 12.6416C11.0335 12.6446 11.0297 12.6476 11.0267 12.6506L10.8835 12.7938C10.8805 12.7968 10.8775 12.8006 10.8745 12.8036L10.7403 12.9378C10.7374 12.9407 10.7342 12.9431 10.7313 12.946L10.4449 13.2324C10.442 13.2353 10.4396 13.2385 10.4367 13.2414L10.3024 13.3757C10.2995 13.3787 10.2957 13.3816 10.2927 13.3846L10.1494 13.5279C10.1464 13.5309 10.1435 13.5346 10.1405 13.5376C10.1375 13.5406 10.1337 13.5436 10.1307 13.5466L10.0681 13.6092C10.065 13.6122 10.0621 13.616 10.0591 13.619C10.0561 13.622 10.0524 13.6249 10.0493 13.6279L10.0046 13.6727C10.0016 13.6757 9.99865 13.6795 9.99564 13.6825C9.99261 13.6855 9.98891 13.6884 9.98587 13.6914L9.95902 13.7183C9.95599 13.7213 9.9531 13.725 9.95006 13.728C9.94702 13.7311 9.94334 13.734 9.9403 13.737L9.84915 13.8281C9.8461 13.8312 9.84326 13.8349 9.8402 13.8379C9.83714 13.841 9.8335 13.8438 9.83044 13.8469L9.82148 13.8558C9.81842 13.8589 9.8156 13.8625 9.81253 13.8656C9.80947 13.8686 9.80583 13.8715 9.80277 13.8745L9.79381 13.8835C9.79074 13.8866 9.78794 13.8902 9.78486 13.8932C9.7818 13.8963 9.77816 13.8991 9.7751 13.9022L9.76615 13.9112C9.76307 13.9142 9.76027 13.9178 9.75719 13.9209C9.75411 13.924 9.75051 13.9268 9.74743 13.9299L9.71976 13.9575C9.71667 13.9606 9.7139 13.9642 9.71081 13.9673C9.70772 13.9704 9.70413 13.9732 9.70104 13.9763L9.5513 14.126C9.54818 14.1291 9.54547 14.1326 9.54235 14.1358C9.53923 14.1389 9.5357 14.1416 9.53258 14.1447L9.43737 14.2399C9.43427 14.243 9.43152 14.2466 9.42842 14.2497C9.4253 14.2528 9.42177 14.2555 9.41865 14.2586L9.39912 14.2782C9.39601 14.2813 9.39328 14.2848 9.39017 14.2879C9.38705 14.2911 9.38352 14.2938 9.3804 14.2969L9.35111 14.3262C9.34799 14.3293 9.34528 14.3328 9.34215 14.336C9.33904 14.3391 9.33551 14.3418 9.33239 14.3449L9.2445 14.4328C9.24138 14.4359 9.23867 14.4394 9.23555 14.4426L9.21602 14.4621C9.21276 14.4654 9.2087 14.4686 9.20544 14.4719L9.12731 14.55C9.12402 14.5533 9.12084 14.5573 9.11755 14.5606C9.11426 14.5639 9.11026 14.567 9.10697 14.5703L9.07767 14.5996C9.07435 14.6029 9.07122 14.6069 9.0679 14.6102C9.06459 14.6135 9.06064 14.6167 9.05732 14.62L9.03779 14.6395C9.03447 14.6428 9.03135 14.6468 9.02803 14.6501C9.02469 14.6534 9.02079 14.6565 9.01745 14.6598L9.00768 14.6696C9.00434 14.673 9.00126 14.6768 8.99792 14.6802C8.99457 14.6835 8.99069 14.6866 8.98734 14.69L8.95723 14.7201C8.95386 14.7234 8.95083 14.7273 8.94746 14.7306C8.9441 14.734 8.94025 14.7371 8.93688 14.7404L8.87585 14.8015C8.87247 14.8048 8.86946 14.8087 8.86608 14.812C8.86269 14.8154 8.85889 14.8184 8.8555 14.8218L8.82458 14.8527C8.82119 14.8561 8.8182 14.8599 8.81481 14.8633C8.81142 14.8667 8.80762 14.8697 8.80423 14.8731L8.79365 14.8836C8.79026 14.887 8.78728 14.8908 8.78389 14.8942C8.78051 14.8976 8.77669 14.9006 8.77331 14.904L8.75215 14.9251C8.74876 14.9285 8.74578 14.9323 8.74238 14.9357C8.739 14.9391 8.7352 14.9421 8.7318 14.9455L8.68949 14.9878C8.6861 14.9912 8.68311 14.995 8.67972 14.9984L8.66914 15.009C8.66575 15.0124 8.66195 15.0153 8.65856 15.0187L8.58451 15.0928C8.58096 15.0963 8.57748 15.1006 8.57393 15.1042L8.56335 15.1148C8.55979 15.1183 8.55551 15.1218 8.55195 15.1253L8.50964 15.1677C8.50606 15.1712 8.50263 15.1755 8.49906 15.1791C8.49547 15.1826 8.49126 15.186 8.48766 15.1896L8.41198 15.2653C8.40834 15.269 8.40504 15.2731 8.4014 15.2767C8.39777 15.2803 8.39364 15.2837 8.39001 15.2873L8.32409 15.3532C8.32043 15.3569 8.31717 15.3609 8.31351 15.3646C8.30986 15.3683 8.30577 15.3715 8.30212 15.3752L8.25736 15.4199C8.2537 15.4236 8.25044 15.4277 8.24678 15.4313C8.24312 15.435 8.23905 15.4382 8.23538 15.4419L8.2012 15.4761C8.19756 15.4797 8.19427 15.4838 8.19062 15.4875C8.18697 15.4911 8.1829 15.4944 8.17923 15.4981L8.08809 15.5892C7.76265 15.9146 7.23514 15.9146 6.9097 15.5892C6.58426 15.2638 6.58426 14.7363 6.9097 14.4108L7.00085 14.3197C7.00451 14.316 7.00777 14.3119 7.01143 14.3083C7.01507 14.3046 7.01918 14.3013 7.02282 14.2977L7.057 14.2635C7.06066 14.2599 7.06392 14.2558 7.06758 14.2521C7.07124 14.2485 7.07531 14.2452 7.07897 14.2416L7.12373 14.1968C7.12739 14.1931 7.13066 14.1891 7.13431 14.1854C7.13797 14.1817 7.14204 14.1785 7.1457 14.1748L7.21162 14.1089C7.21526 14.1053 7.21857 14.1011 7.2222 14.0975C7.22584 14.0939 7.22996 14.0906 7.23359 14.0869L7.30928 14.0112C7.31287 14.0077 7.31627 14.0034 7.31986 13.9999C7.32343 13.9963 7.32768 13.9928 7.33125 13.9893L7.37357 13.947C7.37713 13.9434 7.38059 13.9391 7.38415 13.9356L7.39473 13.925C7.39828 13.9214 7.40257 13.918 7.40612 13.9144L7.48018 13.8403C7.48357 13.837 7.48655 13.8332 7.48994 13.8298L7.50052 13.8192C7.50391 13.8158 7.50771 13.8128 7.5111 13.8094L7.55342 13.7671C7.55681 13.7637 7.5598 13.7599 7.56318 13.7565C7.56658 13.7531 7.57037 13.7502 7.57376 13.7468L7.59492 13.7256C7.59831 13.7222 7.60131 13.7184 7.60469 13.715C7.60808 13.7116 7.61188 13.7086 7.61527 13.7053L7.62585 13.6947C7.62924 13.6913 7.63222 13.6875 7.63561 13.6841C7.639 13.6807 7.64281 13.6777 7.64619 13.6743L7.67712 13.6434C7.68051 13.64 7.68349 13.6362 7.68688 13.6328C7.69026 13.6295 7.69409 13.6264 7.69746 13.6231L7.7585 13.562C7.76186 13.5587 7.7649 13.5548 7.76826 13.5515C7.77163 13.5481 7.77547 13.5451 7.77884 13.5417L7.80895 13.5116C7.81231 13.5082 7.81537 13.5043 7.81872 13.501C7.82206 13.4976 7.82595 13.4946 7.8293 13.4912L7.83906 13.4815C7.8424 13.4781 7.84549 13.4742 7.84883 13.4709C7.85215 13.4676 7.85608 13.4644 7.85941 13.4611L7.87894 13.4416C7.88225 13.4383 7.8854 13.4343 7.8887 13.431C7.89202 13.4277 7.89597 13.4246 7.89928 13.4212L7.92858 13.3919C7.93187 13.3887 7.93506 13.3847 7.93835 13.3814C7.94165 13.3781 7.94563 13.3749 7.94893 13.3716L8.02705 13.2935C8.03031 13.2902 8.03356 13.2862 8.03682 13.2829L8.05635 13.2634C8.05947 13.2602 8.063 13.2575 8.06611 13.2544L8.154 13.1665C8.15712 13.1634 8.15984 13.1599 8.16296 13.1568C8.16608 13.1536 8.1696 13.1509 8.17272 13.1478L8.20202 13.1185C8.20514 13.1154 8.20785 13.1119 8.21097 13.1087C8.21408 13.1056 8.21763 13.1029 8.22074 13.0998L8.24027 13.0803C8.24339 13.0771 8.2461 13.0736 8.24922 13.0705C8.25232 13.0674 8.25588 13.0646 8.25898 13.0615L8.3542 12.9663C8.35732 12.9632 8.36003 12.9597 8.36315 12.9566C8.36627 12.9534 8.3698 12.9507 8.37292 12.9476L8.52266 12.7979C8.52575 12.7948 8.52852 12.7912 8.53161 12.7881C8.5347 12.785 8.53828 12.7822 8.54137 12.7792L8.56904 12.7515C8.57213 12.7484 8.57491 12.7448 8.57799 12.7417C8.58107 12.7386 8.58468 12.7358 8.58776 12.7328L8.59671 12.7238C8.59978 12.7207 8.6026 12.7171 8.60566 12.714C8.60874 12.711 8.61235 12.7082 8.61543 12.7051L8.62438 12.6961C8.62744 12.6931 8.63027 12.6894 8.63333 12.6864C8.6364 12.6833 8.64003 12.6805 8.6431 12.6774L8.65205 12.6685C8.65512 12.6654 8.65794 12.6618 8.661 12.6587C8.66406 12.6557 8.66772 12.6528 8.67077 12.6498L8.76191 12.5586C8.76496 12.5556 8.76783 12.5519 8.77087 12.5488C8.7739 12.5458 8.7776 12.5429 8.78063 12.5399L8.80749 12.513C8.81052 12.51 8.81341 12.5063 8.81644 12.5033C8.81945 12.5003 8.82319 12.4973 8.8262 12.4943L8.87096 12.4496C8.87398 12.4465 8.8769 12.4428 8.87992 12.4398C8.88294 12.4368 8.88666 12.4339 8.88968 12.4308L8.95234 12.3682C8.95535 12.3652 8.95829 12.3614 8.9613 12.3584C8.9643 12.3554 8.96805 12.3525 8.97106 12.3495L9.11429 12.2062C9.11728 12.2032 9.12025 12.1995 9.12324 12.1965L9.25752 12.0622C9.26037 12.0593 9.26362 12.0569 9.26647 12.0541L9.55293 11.7676C9.55578 11.7647 9.55822 11.7615 9.56107 11.7586L9.69535 11.6244C9.69833 11.6214 9.70212 11.6184 9.70511 11.6154L9.84834 11.4722C9.85135 11.4692 9.85428 11.4654 9.85729 11.4624C9.8603 11.4594 9.86405 11.4565 9.86706 11.4535L9.92972 11.3908C9.93274 11.3878 9.93565 11.3841 9.93867 11.381C9.94169 11.378 9.94542 11.3751 9.94844 11.3721L9.9932 11.3273C9.99621 11.3243 9.99914 11.3206 10.0021 11.3176C10.0052 11.3145 10.0089 11.3116 10.0119 11.3086L10.0388 11.2818C10.0418 11.2787 10.0447 11.275 10.0477 11.272C10.0508 11.269 10.0544 11.2661 10.0575 11.263L10.1486 11.1719C10.1517 11.1688 10.1545 11.1652 10.1576 11.1621C10.1606 11.1591 10.1643 11.1562 10.1673 11.1532L10.1763 11.1442C10.1794 11.1412 10.1822 11.1375 10.1853 11.1345C10.1883 11.1314 10.192 11.1286 10.195 11.1255L10.204 11.1166C10.207 11.1135 10.2098 11.1099 10.2129 11.1068C10.216 11.1037 10.2196 11.1009 10.2227 11.0978L10.2316 11.0889C10.2347 11.0858 10.2375 11.0822 10.2406 11.0791C10.2437 11.076 10.2473 11.0733 10.2504 11.0702L10.278 11.0425C10.2811 11.0394 10.2839 11.0358 10.287 11.0327C10.2901 11.0296 10.2937 11.0269 10.2967 11.0238L10.4465 10.874C10.4496 10.8709 10.4523 10.8674 10.4554 10.8643C10.4586 10.8612 10.4621 10.8584 10.4652 10.8553L10.5604 10.7601C10.5635 10.757 10.5663 10.7534 10.5694 10.7503C10.5725 10.7472 10.576 10.7445 10.5791 10.7414L10.5987 10.7219C10.6018 10.7188 10.6045 10.7152 10.6076 10.7121C10.6107 10.709 10.6143 10.7063 10.6174 10.7031L10.6467 10.6738C10.6498 10.6707 10.6525 10.6672 10.6556 10.6641C10.6587 10.661 10.6623 10.6582 10.6654 10.6551L10.7533 10.5672C10.7564 10.5641 10.7591 10.5606 10.7622 10.5575L10.7818 10.5379C10.785 10.5347 10.7891 10.5314 10.7924 10.5282L10.8705 10.4501C10.8738 10.4468 10.8769 10.4428 10.8802 10.4395C10.8835 10.4362 10.8875 10.433 10.8908 10.4297L10.9201 10.4004C10.9234 10.3971 10.9266 10.3931 10.9299 10.3898C10.9332 10.3865 10.9371 10.3834 10.9405 10.3801L10.96 10.3605C10.9633 10.3572 10.9664 10.3533 10.9698 10.35C10.9731 10.3466 10.977 10.3435 10.9803 10.3402L10.9901 10.3304C10.9934 10.3271 10.9965 10.3232 10.9999 10.3198C11.0032 10.3165 11.0071 10.3134 11.0104 10.3101L11.0406 10.28C11.0439 10.2766 11.047 10.2728 11.0503 10.2694C11.0537 10.266 11.0575 10.263 11.0609 10.2596L11.1219 10.1986C11.1253 10.1952 11.1283 10.1914 11.1317 10.188C11.1351 10.1846 11.1389 10.1816 11.1423 10.1782L11.1732 10.1473C11.1766 10.1439 11.1796 10.1401 11.183 10.1367C11.1864 10.1333 11.1902 10.1304 11.1936 10.127L11.2041 10.1164C11.2075 10.113 11.2105 10.1092 11.2139 10.1058C11.2173 10.1024 11.2211 10.0994 11.2245 10.096L11.2456 10.0749C11.249 10.0715 11.252 10.0677 11.2554 10.0643C11.2588 10.0609 11.2626 10.0579 11.266 10.0545L11.3083 10.0122C11.3117 10.0088 11.3147 10.005 11.3181 10.0016L11.3205 9.9992L6.9097 5.58921C6.58426 5.26377 6.58426 4.73626 6.9097 4.41083C7.23514 4.08539 7.76265 4.08539 8.08809 4.41083L13.0881 9.41083L13.1451 9.4743Z" fill="#37383B"/>
</svg>
