<svg width="24" height="24" viewBox="0 0 24 24" fill="none" xmlns="http://www.w3.org/2000/svg">
<path d="M12.6309 15.7756C12.2382 16.096 11.6592 16.0734 11.293 15.7073L11.1837 15.5979C11.1793 15.5935 11.1744 15.5896 11.17 15.5852C11.1656 15.5808 11.1617 15.5759 11.1573 15.5715L11.1163 15.5305C11.1119 15.5261 11.107 15.5222 11.1026 15.5178C11.0982 15.5134 11.0943 15.5085 11.0899 15.5041L11.0362 15.4504C11.0318 15.446 11.0269 15.4421 11.0225 15.4377C11.0181 15.4333 11.0142 15.4285 11.0098 15.4241L10.9307 15.345C10.9264 15.3406 10.9214 15.3366 10.9171 15.3323C10.9127 15.3279 10.9087 15.323 10.9044 15.3186L10.8136 15.2278C10.8092 15.2235 10.8042 15.2194 10.7999 15.2151C10.7956 15.2108 10.7915 15.2057 10.7872 15.2014L10.7364 15.1506C10.7321 15.1464 10.727 15.1422 10.7227 15.1379L10.71 15.1252C10.7058 15.121 10.7016 15.1158 10.6973 15.1116L10.6085 15.0227C10.6044 15.0186 10.5998 15.015 10.5958 15.011L10.5831 14.9983C10.579 14.9942 10.5754 14.9897 10.5714 14.9856L10.5206 14.9348C10.5165 14.9307 10.512 14.9271 10.5079 14.9231C10.5038 14.919 10.5002 14.9145 10.4962 14.9104L10.4708 14.885C10.4667 14.8809 10.4621 14.8773 10.4581 14.8733C10.454 14.8692 10.4504 14.8647 10.4464 14.8606L10.4337 14.8479C10.4296 14.8438 10.425 14.8402 10.421 14.8362C10.4169 14.8321 10.4133 14.8275 10.4093 14.8235L10.3721 14.7864C10.3681 14.7823 10.3635 14.7787 10.3595 14.7746C10.3554 14.7706 10.3518 14.766 10.3477 14.762L10.2745 14.6887C10.2705 14.6847 10.2658 14.681 10.2618 14.677C10.2577 14.6729 10.2541 14.6683 10.2501 14.6643L10.2139 14.6282C10.2099 14.6241 10.2053 14.6205 10.2012 14.6164C10.1972 14.6124 10.1935 14.6078 10.1895 14.6037L10.1778 14.592C10.1738 14.588 10.1691 14.5843 10.1651 14.5803C10.1611 14.5763 10.1574 14.5716 10.1534 14.5676L10.13 14.5442C10.126 14.5402 10.1212 14.5364 10.1173 14.5325C10.1133 14.5285 10.1095 14.5237 10.1055 14.5198L10.0704 14.4846C10.0664 14.4807 10.0616 14.4768 10.0577 14.4729C10.0537 14.4689 10.0499 14.4641 10.046 14.4602L9.95222 14.3664C9.94831 14.3625 9.94344 14.3586 9.93953 14.3547L9.91609 14.3313C9.91235 14.3275 9.90909 14.3233 9.90535 14.3196L9.79988 14.2141C9.79614 14.2104 9.7919 14.2071 9.78816 14.2034C9.78442 14.1996 9.78116 14.1954 9.77742 14.1916L9.74226 14.1565C9.73852 14.1527 9.73429 14.1495 9.73054 14.1457C9.72681 14.142 9.72353 14.1378 9.7198 14.134L9.69636 14.1106C9.69262 14.1068 9.68839 14.1036 9.68465 14.0998C9.68092 14.0961 9.67762 14.0918 9.6739 14.0881L9.55965 13.9739C9.5559 13.9701 9.55167 13.9669 9.54793 13.9631C9.54418 13.9594 9.54093 13.9551 9.53718 13.9514L9.3575 13.7717C9.35378 13.768 9.34949 13.7647 9.34578 13.761C9.34206 13.7573 9.33875 13.753 9.33504 13.7493L9.30183 13.7161C9.29813 13.7123 9.29382 13.709 9.29011 13.7053C9.28642 13.7016 9.28306 13.6973 9.27937 13.6936L9.26863 13.6829C9.26495 13.6792 9.26059 13.6758 9.25691 13.6721C9.25322 13.6684 9.24986 13.6641 9.24617 13.6604L9.23543 13.6496C9.23175 13.646 9.22738 13.6426 9.22371 13.6389C9.22002 13.6352 9.21665 13.6309 9.21297 13.6272L9.20222 13.6164C9.19854 13.6128 9.19418 13.6094 9.19051 13.6057C9.18684 13.602 9.18343 13.5976 9.17976 13.594L9.07039 13.4846C9.06674 13.481 9.06232 13.4775 9.05867 13.4739C9.05503 13.4702 9.05156 13.4658 9.04793 13.4621L9.0157 13.4299C9.01206 13.4263 9.00762 13.4228 9.00398 13.4192C9.00037 13.4156 8.99685 13.4111 8.99324 13.4075L8.93953 13.3537C8.93591 13.3501 8.93143 13.3466 8.92781 13.343C8.92419 13.3394 8.92069 13.3349 8.91707 13.3313L8.84187 13.2561C8.83826 13.2525 8.83376 13.249 8.83015 13.2454C8.82654 13.2417 8.82302 13.2372 8.81941 13.2336L8.64754 13.0618C8.64395 13.0582 8.6394 13.0546 8.63582 13.051L8.47468 12.8899C8.47127 12.8865 8.46834 12.8826 8.46492 12.8791L8.12117 12.5354C8.11775 12.532 8.11385 12.529 8.11043 12.5256L7.94929 12.3645C7.94571 12.3609 7.94214 12.3564 7.93855 12.3528L7.76668 12.1809C7.76307 12.1773 7.75857 12.1738 7.75496 12.1702C7.75135 12.1665 7.74783 12.162 7.74422 12.1584L7.66902 12.0832C7.6654 12.0796 7.66093 12.0761 7.6573 12.0725C7.65368 12.0689 7.65018 12.0644 7.64656 12.0608L7.59285 12.0071C7.58924 12.0035 7.58474 11.9999 7.58113 11.9963C7.57749 11.9927 7.57403 11.9882 7.57039 11.9846L7.53816 11.9524C7.53453 11.9487 7.53008 11.9453 7.52644 11.9416C7.52279 11.938 7.51935 11.9336 7.5157 11.9299L7.40633 11.8205C7.40266 11.8169 7.39827 11.8135 7.39461 11.8098C7.39093 11.8061 7.38754 11.8018 7.38386 11.7981L7.37312 11.7873C7.36944 11.7837 7.36509 11.7803 7.3614 11.7766C7.35773 11.7729 7.35434 11.7686 7.35066 11.7649L7.33992 11.7541C7.33623 11.7505 7.33189 11.7471 7.3282 11.7434C7.32452 11.7397 7.32114 11.7354 7.31746 11.7317L7.30672 11.7209C7.30303 11.7172 7.29869 11.7139 7.295 11.7102C7.2913 11.7065 7.28796 11.7022 7.28426 11.6985L7.25105 11.6653C7.24734 11.6616 7.24305 11.6582 7.23933 11.6545C7.23562 11.6508 7.2323 11.6465 7.22859 11.6428L7.0489 11.4631C7.04516 11.4594 7.04093 11.4561 7.03719 11.4524C7.03344 11.4486 7.03019 11.4444 7.02644 11.4407L6.91219 11.3264C6.90846 11.3227 6.90419 11.3194 6.90047 11.3157C6.89673 11.3119 6.89347 11.3077 6.88972 11.3039L6.86629 11.2805C6.86256 11.2768 6.8583 11.2735 6.85457 11.2698C6.85083 11.266 6.84757 11.2618 6.84383 11.258L6.80867 11.2229C6.80493 11.2191 6.8007 11.2159 6.79695 11.2121C6.79321 11.2084 6.78995 11.2042 6.78621 11.2004L6.68074 11.095C6.677 11.0912 6.67277 11.088 6.66902 11.0842L6.64558 11.0608C6.64167 11.0569 6.63778 11.052 6.63386 11.0481L6.54011 10.9543C6.53616 10.9504 6.53138 10.9466 6.52742 10.9426C6.52347 10.9387 6.51965 10.9339 6.5157 10.9299L6.48054 10.8948C6.47657 10.8908 6.47183 10.887 6.46785 10.883C6.46388 10.8791 6.46011 10.8743 6.45613 10.8704L6.43269 10.8469C6.42871 10.8429 6.42399 10.8392 6.42 10.8352C6.41599 10.8312 6.41229 10.8265 6.40828 10.8225L6.39656 10.8108C6.39255 10.8068 6.38788 10.8031 6.38386 10.7991C6.37985 10.795 6.37617 10.7904 6.37215 10.7864L6.33601 10.7502C6.33197 10.7462 6.32736 10.7426 6.32332 10.7385C6.31929 10.7345 6.31564 10.7299 6.3116 10.7258L6.23836 10.6526C6.23431 10.6485 6.22971 10.6449 6.22566 10.6409C6.2216 10.6368 6.21802 10.6322 6.21394 10.6282L6.17683 10.5911C6.17277 10.587 6.16821 10.5834 6.16414 10.5793C6.16007 10.5753 6.15649 10.5707 6.15242 10.5666L6.13972 10.5539C6.13566 10.5499 6.1311 10.5463 6.12703 10.5422C6.12297 10.5382 6.11937 10.5336 6.11531 10.5295L6.08992 10.5041C6.08585 10.5001 6.0813 10.4965 6.07722 10.4924C6.07316 10.4884 6.06958 10.4838 6.06551 10.4797L6.01472 10.4289C6.01066 10.4249 6.0061 10.4213 6.00203 10.4172L5.98933 10.4045C5.98527 10.4005 5.98169 10.3959 5.97761 10.3918L5.88875 10.303C5.88449 10.2987 5.87934 10.2945 5.87508 10.2903L5.86238 10.2776C5.85811 10.2733 5.85396 10.2682 5.84969 10.2639L5.7989 10.2131C5.79462 10.2088 5.78953 10.2047 5.78523 10.2004C5.78093 10.1961 5.77685 10.1911 5.77254 10.1868L5.68172 10.0959C5.67736 10.0916 5.67241 10.0876 5.66804 10.0832C5.66369 10.0789 5.65971 10.0739 5.65535 10.0696L5.57625 9.99047C5.57186 9.98608 5.56697 9.98217 5.56258 9.97777C5.55819 9.97339 5.55427 9.96849 5.54988 9.9641L5.49617 9.91039C5.49178 9.906 5.4869 9.90209 5.4825 9.89769C5.47811 9.8933 5.4742 9.88842 5.4698 9.88402L5.42879 9.84301C5.42442 9.83864 5.41949 9.83469 5.41511 9.83031C5.41072 9.82592 5.40682 9.82104 5.40242 9.81664L5.29304 9.70726C4.90252 9.31674 4.90252 8.68373 5.29304 8.2932C5.68357 7.90268 6.31658 7.90268 6.70711 8.2932L6.81648 8.40258C6.82088 8.40698 6.82576 8.41088 6.83015 8.41527C6.83453 8.41965 6.83848 8.42457 6.84285 8.42894L6.88387 8.46996C6.88826 8.47436 6.89315 8.47826 6.89754 8.48266C6.90193 8.48705 6.90584 8.49194 6.91023 8.49633L6.96394 8.55004C6.96833 8.55443 6.97323 8.55835 6.97762 8.56273C6.98201 8.56713 6.98592 8.57201 6.99031 8.57641L7.06941 8.65551C7.07378 8.65987 7.07873 8.66385 7.08308 8.6682C7.08745 8.67257 7.09142 8.67751 7.09578 8.68187L7.1866 8.77269C7.19091 8.77701 7.19596 8.78108 7.20027 8.78539C7.20456 8.78968 7.20868 8.79477 7.21297 8.79906L7.26375 8.84984C7.26802 8.85412 7.27315 8.85827 7.27742 8.86254L7.29012 8.87523C7.29438 8.87949 7.29856 8.88465 7.30281 8.88891L7.39168 8.97777C7.39575 8.98184 7.40031 8.98543 7.40437 8.98949L7.41707 9.00219C7.42114 9.00626 7.42472 9.01082 7.42879 9.01488L7.47957 9.06566C7.48364 9.06973 7.4882 9.07332 7.49226 9.07738C7.49634 9.08145 7.49992 9.08601 7.50398 9.09008L7.52937 9.11547C7.53344 9.11953 7.53801 9.12313 7.54207 9.12719C7.54614 9.13126 7.54972 9.13582 7.55379 9.13988L7.56648 9.15258C7.57055 9.15665 7.57511 9.16023 7.57918 9.1643C7.58324 9.16836 7.58683 9.17293 7.5909 9.17699L7.62801 9.2141C7.63208 9.21817 7.63663 9.22175 7.6407 9.22582C7.64475 9.22987 7.64837 9.23447 7.65242 9.23851L7.72566 9.31176C7.7297 9.31579 7.73433 9.31944 7.73836 9.32348C7.7424 9.32752 7.74604 9.33213 7.75008 9.33617L7.78621 9.3723C7.79023 9.37633 7.79488 9.38 7.7989 9.38402C7.80292 9.38804 7.80661 9.39271 7.81062 9.39672L7.82234 9.40844C7.82635 9.41245 7.83103 9.41615 7.83504 9.42016C7.83903 9.42415 7.84277 9.42886 7.84676 9.43285L7.87019 9.45629C7.87417 9.46026 7.87892 9.46404 7.88289 9.46801C7.88687 9.47199 7.89063 9.47672 7.89461 9.4807L7.92976 9.51586C7.93371 9.51981 7.93851 9.52363 7.94246 9.52758C7.94642 9.53154 7.95022 9.53632 7.95418 9.54027L8.04793 9.63402C8.05184 9.63794 8.05671 9.64183 8.06062 9.64574L8.08406 9.66918C8.08781 9.67292 8.09106 9.67716 8.0948 9.6809L8.20027 9.78637C8.20401 9.79011 8.20825 9.79337 8.21199 9.79711C8.21574 9.80085 8.21899 9.80509 8.22273 9.80883L8.25789 9.84398C8.26163 9.84773 8.26587 9.85098 8.26961 9.85473C8.27334 9.85846 8.27662 9.86272 8.28035 9.86644L8.30379 9.88988C8.30753 9.89363 8.31176 9.89688 8.31551 9.90062C8.31923 9.90435 8.32253 9.90862 8.32625 9.91234L8.44051 10.0266C8.44425 10.0303 8.44848 10.0336 8.45222 10.0373C8.45597 10.0411 8.45922 10.0453 8.46297 10.0491L8.64265 10.2287C8.64637 10.2325 8.65066 10.2358 8.65437 10.2395C8.65809 10.2432 8.6614 10.2475 8.66511 10.2512L8.69832 10.2844C8.70202 10.2881 8.70634 10.2915 8.71004 10.2952C8.71373 10.2988 8.71709 10.3032 8.72078 10.3069L8.73152 10.3176C8.7352 10.3213 8.73956 10.3247 8.74324 10.3284C8.74693 10.3321 8.75029 10.3364 8.75398 10.3401L8.76472 10.3508C8.7684 10.3545 8.77277 10.3579 8.77644 10.3616C8.78013 10.3652 8.7835 10.3696 8.78719 10.3733L8.79793 10.384C8.80161 10.3877 8.80597 10.3911 8.80965 10.3948C8.81331 10.3984 8.81673 10.4028 8.82039 10.4065L8.92976 10.5159C8.93341 10.5195 8.93783 10.523 8.94148 10.5266C8.94512 10.5302 8.94859 10.5347 8.95222 10.5383L8.98445 10.5705C8.98809 10.5742 8.99253 10.5777 8.99617 10.5813C8.99978 10.5849 9.0033 10.5894 9.00691 10.593L9.06062 10.6467C9.06425 10.6503 9.06872 10.6538 9.07234 10.6575C9.07597 10.6611 9.07946 10.6656 9.08308 10.6692L9.15828 10.7444C9.16189 10.748 9.16639 10.7515 9.17 10.7551C9.17361 10.7587 9.17713 10.7632 9.18074 10.7668L9.35261 10.9387C9.3562 10.9423 9.36075 10.9459 9.36433 10.9495L9.52547 11.1106C9.52888 11.114 9.53181 11.1179 9.53523 11.1213L9.87898 11.4651C9.8824 11.4685 9.88631 11.4714 9.88972 11.4748L10.0509 11.636C10.0544 11.6396 10.058 11.6441 10.0616 11.6477L10.2335 11.8196C10.2371 11.8232 10.2416 11.8267 10.2452 11.8303C10.2488 11.8339 10.2523 11.8384 10.2559 11.842L10.3311 11.9172C10.3348 11.9208 10.3392 11.9243 10.3428 11.928C10.3465 11.9316 10.35 11.9361 10.3536 11.9397L10.4073 11.9934C10.4109 11.997 10.4154 12.0005 10.419 12.0041C10.4227 12.0078 10.4261 12.0122 10.4298 12.0159L10.462 12.0481C10.4656 12.0517 10.4701 12.0552 10.4737 12.0588C10.4774 12.0625 10.4808 12.0669 10.4845 12.0705L10.5938 12.1799C10.5975 12.1836 10.6019 12.187 10.6055 12.1907C10.6092 12.1943 10.6126 12.1987 10.6163 12.2024L10.627 12.2131C10.6307 12.2168 10.6351 12.2202 10.6387 12.2239C10.6424 12.2275 10.6458 12.2319 10.6495 12.2356L10.6602 12.2463C10.6639 12.25 10.6683 12.2534 10.672 12.2571C10.6756 12.2607 10.679 12.2651 10.6827 12.2688L10.6934 12.2795C10.6971 12.2832 10.7015 12.2866 10.7052 12.2903C10.7089 12.294 10.7122 12.2983 10.7159 12.302L10.7491 12.3352C10.7528 12.3389 10.7571 12.3422 10.7608 12.3459C10.7645 12.3496 10.7678 12.3539 10.7716 12.3577L10.9512 12.5373C10.955 12.5411 10.9592 12.5443 10.963 12.5481C10.9667 12.5518 10.97 12.5561 10.9737 12.5598L11.088 12.6741C11.0917 12.6778 11.096 12.6811 11.0997 12.6848C11.1034 12.6885 11.1067 12.6928 11.1104 12.6965L11.1339 12.72C11.1376 12.7237 11.1419 12.727 11.1456 12.7307C11.1493 12.7344 11.1526 12.7387 11.1563 12.7424L11.1915 12.7776C11.1952 12.7813 11.1995 12.7846 11.2032 12.7883C11.2069 12.7921 11.2102 12.7963 11.2139 12.8L11.3194 12.9055C11.3232 12.9092 11.3274 12.9125 11.3311 12.9162L11.3546 12.9397C11.3585 12.9436 11.3624 12.9485 11.3663 12.9524L11.46 13.0461C11.464 13.0501 11.4688 13.0539 11.4727 13.0579C11.4767 13.0618 11.4805 13.0666 11.4845 13.0705L11.5196 13.1057C11.5236 13.1097 11.5283 13.1134 11.5323 13.1174C11.5363 13.1214 11.54 13.1261 11.544 13.1301L11.5675 13.1536C11.5714 13.1575 11.5762 13.1613 11.5802 13.1653C11.5842 13.1693 11.5879 13.174 11.5919 13.178L11.6036 13.1897C11.6076 13.1937 11.6123 13.1974 11.6163 13.2014C11.6203 13.2054 11.624 13.2101 11.628 13.2141L11.6641 13.2502C11.6682 13.2543 11.6728 13.2579 11.6768 13.262C11.6809 13.266 11.6845 13.2706 11.6886 13.2746L11.7618 13.3479C11.7658 13.3519 11.7704 13.3556 11.7745 13.3596C11.7786 13.3637 11.7821 13.3682 11.7862 13.3723L11.8233 13.4094C11.8274 13.4135 11.8319 13.4171 11.836 13.4211C11.8401 13.4252 11.8437 13.4298 11.8477 13.4338L11.8604 13.4465C11.8645 13.4506 11.8691 13.4542 11.8731 13.4582C11.8772 13.4623 11.8808 13.4669 11.8848 13.4709L11.9102 13.4963C11.9143 13.5004 11.9189 13.504 11.9229 13.508C11.927 13.5121 11.9306 13.5167 11.9346 13.5207L11.9854 13.5715C11.9895 13.5756 11.9941 13.5792 11.9981 13.5832L12.0011 13.5862L17.293 8.2932C17.6836 7.90268 18.3166 7.90268 18.7071 8.2932C19.0976 8.68373 19.0976 9.31674 18.7071 9.70727L12.7071 15.7073L12.6309 15.7756Z" fill="#37383B"/>
</svg>
