<svg width="48" height="48" viewBox="0 0 48 48" fill="none" xmlns="http://www.w3.org/2000/svg">
<rect x="0.5" y="0.5" width="47" height="47" rx="23.5" stroke="#D5D5D5"/>
<path d="M23.9991 20.3047C22.0021 20.3047 20.3047 22.0022 20.3047 23.9992C20.3047 25.9962 22.0021 27.6935 23.9991 27.6935C25.9961 27.6935 27.6936 25.9962 27.6936 23.9992C27.6936 22.0022 25.9961 20.3047 23.9991 20.3047Z" fill="#36373A"/>
<path d="M28.733 12.9141H19.3625C15.7353 12.9141 12.9141 15.7353 12.9141 19.2618V28.6322C12.9141 32.2595 15.7353 35.0807 19.3625 35.0807H28.733C32.2595 35.0807 35.0807 32.2595 35.0807 28.6322V19.2618C35.0807 15.7353 32.2595 12.9141 28.733 12.9141ZM23.9974 29.8413C20.7731 29.8413 18.2542 27.2216 18.2542 24.0982C18.2542 20.9747 20.7731 18.2542 23.9974 18.2542C27.2216 18.2542 29.7405 20.8739 29.7405 23.9974C29.7405 27.1209 27.2216 29.8413 23.9974 29.8413ZM29.9421 19.4633C29.2368 19.4633 28.6322 18.8588 28.6322 18.1535C28.6322 17.4481 29.2368 16.8436 29.9421 16.8436C30.6474 16.8436 31.252 17.4481 31.252 18.1535C31.252 18.8588 30.6474 19.4633 29.9421 19.4633Z" fill="#36373A"/>
</svg>
