<svg width="48" height="48" viewBox="0 0 48 48" fill="none" xmlns="http://www.w3.org/2000/svg">
<rect x="0.5" y="0.5" width="47" height="47" rx="23.5" stroke="#D5D5D5"/>
<path fill-rule="evenodd" clip-rule="evenodd" d="M34.0282 15.5042C35.1329 15.7985 36.0022 16.6724 36.2965 17.7861C36.8307 19.8009 36.8262 24.0025 36.8262 24.0025C36.8262 24.0025 36.8262 28.204 36.292 30.2187C35.9976 31.328 35.1283 32.2018 34.0236 32.5006C32.0224 33.0395 23.9952 33.0395 23.9952 33.0395C23.9952 33.0395 15.9678 33.0395 13.9666 32.5006C12.8619 32.2064 11.9926 31.3325 11.6983 30.2187C11.1641 28.204 11.1641 24.0025 11.1641 24.0025C11.1641 24.0025 11.1641 19.8009 11.7028 17.7816C11.9971 16.6724 12.8664 15.7985 13.9711 15.4997C15.9723 14.9609 23.9996 14.9609 23.9996 14.9609C23.9996 14.9609 32.0224 14.9609 34.0282 15.5042ZM21.3737 20.1858V27.8192L28.0835 24.0025L21.3737 20.1858Z" fill="#36373A"/>
</svg>
